<svg width="110" height="30" viewBox="0 0 110 30" fill="none" xmlns="http://www.w3.org/2000/svg">
<path d="M37.336 6.796C37.8493 6.796 38.2967 6.862 38.678 6.994C39.0593 7.126 39.3967 7.302 39.69 7.522C39.8953 7.68333 40.0713 7.91067 40.218 8.204C40.3647 8.48267 40.438 8.80533 40.438 9.172C40.438 9.568 40.2913 9.92 39.998 10.228C39.7193 10.536 39.3453 10.69 38.876 10.69C38.392 10.69 37.9887 10.5507 37.666 10.272C37.358 9.99333 37.204 9.612 37.204 9.128C37.204 8.74667 37.314 8.40933 37.534 8.116C37.754 7.82267 38.0767 7.61733 38.502 7.5C38.458 7.412 38.37 7.33867 38.238 7.28C38.106 7.22133 37.93 7.192 37.71 7.192C37.4167 7.192 37.1747 7.24333 36.984 7.346C36.7933 7.44867 36.6393 7.588 36.522 7.764C36.3607 7.984 36.2507 8.30667 36.192 8.732C36.1333 9.14267 36.104 9.78067 36.104 10.646V12.648H38.458V13.088H36.104V21.734C36.104 22.4527 36.2873 22.9367 36.654 23.186C37.0207 23.4207 37.5267 23.538 38.172 23.538V24C37.7907 23.9853 37.2553 23.9707 36.566 23.956C35.8767 23.9267 35.1507 23.912 34.388 23.912C33.8307 23.912 33.2807 23.9267 32.738 23.956C32.21 23.9707 31.8067 23.9853 31.528 24V23.538C32.0413 23.538 32.4007 23.428 32.606 23.208C32.826 22.988 32.936 22.57 32.936 21.954V13.088H31.44V12.648H32.936C32.936 11.7827 32.98 11.064 33.068 10.492C33.156 9.90533 33.3027 9.40667 33.508 8.996C33.7133 8.58533 33.9847 8.21867 34.322 7.896C34.6447 7.588 35.07 7.33133 35.598 7.126C36.1407 6.906 36.72 6.796 37.336 6.796ZM41.7044 20.92C42.2764 20.92 42.731 21.074 43.0684 21.382C43.4057 21.6753 43.5744 22.086 43.5744 22.614C43.5744 23.142 43.4057 23.56 43.0684 23.868C42.731 24.1613 42.2764 24.308 41.7044 24.308C41.1324 24.308 40.6777 24.1613 40.3404 23.868C40.003 23.56 39.8344 23.142 39.8344 22.614C39.8344 22.086 40.003 21.6753 40.3404 21.382C40.6777 21.074 41.1324 20.92 41.7044 20.92ZM49.6801 12.384V25.804C49.6801 26.4933 49.8561 26.948 50.2081 27.168C50.5601 27.4027 51.0441 27.52 51.6601 27.52V27.982C51.2787 27.9673 50.7507 27.9453 50.0761 27.916C49.4161 27.9013 48.7121 27.894 47.9641 27.894C47.4214 27.894 46.8861 27.9013 46.3581 27.916C45.8447 27.9453 45.4561 27.9673 45.1921 27.982V27.52C45.6761 27.52 46.0134 27.4173 46.2041 27.212C46.4094 27.0067 46.5121 26.6107 46.5121 26.024V15.024C46.5121 14.364 46.4094 13.88 46.2041 13.572C45.9987 13.2493 45.6321 13.088 45.1041 13.088V12.626C45.5734 12.67 46.0281 12.692 46.4681 12.692C47.0694 12.692 47.6414 12.67 48.1841 12.626C48.7267 12.5673 49.2254 12.4867 49.6801 12.384ZM53.0901 12.318C53.8381 12.318 54.5054 12.5233 55.0921 12.934C55.6787 13.33 56.1481 13.9387 56.5001 14.76C56.8521 15.5667 57.0281 16.5787 57.0281 17.796C57.0281 18.8667 56.9034 19.8053 56.6541 20.612C56.4194 21.4187 56.0747 22.1007 55.6201 22.658C55.1801 23.2007 54.6447 23.6113 54.0141 23.89C53.3981 24.1687 52.7014 24.308 51.9241 24.308C51.3521 24.308 50.8314 24.2053 50.3621 24C49.8927 23.8093 49.5334 23.5307 49.2841 23.164L49.5041 22.878C49.6507 23.142 49.8561 23.3473 50.1201 23.494C50.3987 23.6407 50.7141 23.714 51.0661 23.714C51.7261 23.714 52.2467 23.494 52.6281 23.054C53.0094 22.5993 53.2807 21.9687 53.4421 21.162C53.6181 20.3407 53.7061 19.3653 53.7061 18.236C53.7061 16.9747 53.6254 15.9847 53.4641 15.266C53.3027 14.5473 53.0827 14.034 52.8041 13.726C52.5254 13.418 52.1881 13.264 51.7921 13.264C51.2641 13.264 50.7801 13.4693 50.3401 13.88C49.9147 14.2907 49.6727 14.8773 49.6141 15.64L49.5041 14.87C49.7681 14.034 50.2154 13.4033 50.8461 12.978C51.4914 12.538 52.2394 12.318 53.0901 12.318ZM61.4195 24.154C60.7595 24.154 60.2095 24.0293 59.7695 23.78C59.3295 23.5307 59.0068 23.2007 58.8015 22.79C58.5961 22.3647 58.4935 21.9027 58.4935 21.404C58.4935 20.7733 58.6328 20.26 58.9115 19.864C59.2048 19.468 59.5788 19.1453 60.0335 18.896C60.4881 18.6467 60.9648 18.4413 61.4635 18.28C61.9768 18.1187 62.4608 17.9647 62.9155 17.818C63.3848 17.6567 63.7588 17.4733 64.0375 17.268C64.3308 17.048 64.4775 16.7693 64.4775 16.432V14.716C64.4775 14.3347 64.4115 13.9973 64.2795 13.704C64.1621 13.396 63.9715 13.1613 63.7075 13C63.4581 12.8387 63.1281 12.758 62.7175 12.758C62.4241 12.758 62.1308 12.802 61.8375 12.89C61.5441 12.9633 61.3021 13.0953 61.1115 13.286C61.5221 13.4327 61.8375 13.66 62.0575 13.968C62.2921 14.2613 62.4095 14.5987 62.4095 14.98C62.4095 15.4787 62.2335 15.8747 61.8815 16.168C61.5441 16.4613 61.1408 16.608 60.6715 16.608C60.1435 16.608 59.7401 16.4467 59.4615 16.124C59.1975 15.7867 59.0655 15.3833 59.0655 14.914C59.0655 14.4887 59.1681 14.1367 59.3735 13.858C59.5935 13.5793 59.8941 13.3153 60.2755 13.066C60.6861 12.8313 61.1775 12.648 61.7495 12.516C62.3361 12.384 62.9668 12.318 63.6415 12.318C64.3161 12.318 64.9248 12.3913 65.4675 12.538C66.0101 12.67 66.4648 12.9193 66.8315 13.286C67.1688 13.6233 67.3888 14.0413 67.4915 14.54C67.5941 15.024 67.6455 15.64 67.6455 16.388V22.372C67.6455 22.7387 67.6821 22.9953 67.7555 23.142C67.8288 23.274 67.9535 23.34 68.1295 23.34C68.2615 23.34 68.3861 23.3033 68.5035 23.23C68.6355 23.1567 68.7748 23.0687 68.9215 22.966L69.1415 23.34C68.8335 23.604 68.4741 23.8093 68.0635 23.956C67.6675 24.088 67.2201 24.154 66.7215 24.154C66.1788 24.154 65.7461 24.0807 65.4235 23.934C65.1008 23.7727 64.8661 23.56 64.7195 23.296C64.5875 23.032 64.5215 22.724 64.5215 22.372C64.1695 22.9293 63.7441 23.3693 63.2455 23.692C62.7468 24 62.1381 24.154 61.4195 24.154ZM62.9815 22.746C63.2748 22.746 63.5388 22.68 63.7735 22.548C64.0228 22.4013 64.2575 22.1667 64.4775 21.844V17.334C64.3455 17.554 64.1621 17.752 63.9275 17.928C63.6928 18.104 63.4435 18.2873 63.1795 18.478C62.9155 18.654 62.6588 18.852 62.4095 19.072C62.1748 19.292 61.9841 19.5633 61.8375 19.886C61.6908 20.2087 61.6175 20.5973 61.6175 21.052C61.6175 21.624 61.7421 22.0493 61.9915 22.328C62.2408 22.6067 62.5708 22.746 62.9815 22.746ZM74.2582 6.774V21.954C74.2582 22.57 74.3609 22.988 74.5662 23.208C74.7862 23.428 75.1529 23.538 75.6662 23.538V24C75.3875 23.9853 74.9695 23.9707 74.4122 23.956C73.8549 23.9267 73.2902 23.912 72.7182 23.912C72.1462 23.912 71.5669 23.9267 70.9802 23.956C70.4082 23.9707 69.9755 23.9853 69.6822 24V23.538C70.1955 23.538 70.5549 23.428 70.7602 23.208C70.9802 22.988 71.0902 22.57 71.0902 21.954V9.414C71.0902 8.754 70.9875 8.27 70.7822 7.962C70.5915 7.63933 70.2249 7.478 69.6822 7.478V7.016C70.1515 7.06 70.6062 7.082 71.0462 7.082C71.6475 7.082 72.2195 7.06 72.7622 7.016C73.3049 6.95733 73.8035 6.87667 74.2582 6.774ZM79.6382 24.154C78.9782 24.154 78.4282 24.0293 77.9882 23.78C77.5482 23.5307 77.2256 23.2007 77.0202 22.79C76.8149 22.3647 76.7122 21.9027 76.7122 21.404C76.7122 20.7733 76.8516 20.26 77.1302 19.864C77.4236 19.468 77.7976 19.1453 78.2522 18.896C78.7069 18.6467 79.1836 18.4413 79.6822 18.28C80.1956 18.1187 80.6796 17.9647 81.1342 17.818C81.6036 17.6567 81.9776 17.4733 82.2562 17.268C82.5496 17.048 82.6962 16.7693 82.6962 16.432V14.716C82.6962 14.3347 82.6302 13.9973 82.4982 13.704C82.3809 13.396 82.1902 13.1613 81.9262 13C81.6769 12.8387 81.3469 12.758 80.9362 12.758C80.6429 12.758 80.3496 12.802 80.0562 12.89C79.7629 12.9633 79.5209 13.0953 79.3302 13.286C79.7409 13.4327 80.0562 13.66 80.2762 13.968C80.5109 14.2613 80.6282 14.5987 80.6282 14.98C80.6282 15.4787 80.4522 15.8747 80.1002 16.168C79.7629 16.4613 79.3596 16.608 78.8902 16.608C78.3622 16.608 77.9589 16.4467 77.6802 16.124C77.4162 15.7867 77.2842 15.3833 77.2842 14.914C77.2842 14.4887 77.3869 14.1367 77.5922 13.858C77.8122 13.5793 78.1129 13.3153 78.4942 13.066C78.9049 12.8313 79.3962 12.648 79.9682 12.516C80.5549 12.384 81.1856 12.318 81.8602 12.318C82.5349 12.318 83.1436 12.3913 83.6862 12.538C84.2289 12.67 84.6836 12.9193 85.0502 13.286C85.3876 13.6233 85.6076 14.0413 85.7102 14.54C85.8129 15.024 85.8642 15.64 85.8642 16.388V22.372C85.8642 22.7387 85.9009 22.9953 85.9742 23.142C86.0476 23.274 86.1722 23.34 86.3482 23.34C86.4802 23.34 86.6049 23.3033 86.7222 23.23C86.8542 23.1567 86.9936 23.0687 87.1402 22.966L87.3602 23.34C87.0522 23.604 86.6929 23.8093 86.2822 23.956C85.8862 24.088 85.4389 24.154 84.9402 24.154C84.3976 24.154 83.9649 24.0807 83.6422 23.934C83.3196 23.7727 83.0849 23.56 82.9382 23.296C82.8062 23.032 82.7402 22.724 82.7402 22.372C82.3882 22.9293 81.9629 23.3693 81.4642 23.692C80.9656 24 80.3569 24.154 79.6382 24.154ZM81.2002 22.746C81.4936 22.746 81.7576 22.68 81.9922 22.548C82.2416 22.4013 82.4762 22.1667 82.6962 21.844V17.334C82.5642 17.554 82.3809 17.752 82.1462 17.928C81.9116 18.104 81.6622 18.2873 81.3982 18.478C81.1342 18.654 80.8776 18.852 80.6282 19.072C80.3936 19.292 80.2029 19.5633 80.0562 19.886C79.9096 20.2087 79.8362 20.5973 79.8362 21.052C79.8362 21.624 79.9609 22.0493 80.2102 22.328C80.4596 22.6067 80.7896 22.746 81.2002 22.746ZM93.7089 12.318C94.2809 12.318 94.8016 12.384 95.2709 12.516C95.7549 12.6333 96.1509 12.7873 96.4589 12.978C96.8403 13.2127 97.1336 13.506 97.3389 13.858C97.5589 14.1953 97.6689 14.5913 97.6689 15.046C97.6689 15.5593 97.5076 15.9847 97.1849 16.322C96.8623 16.6447 96.4443 16.806 95.9309 16.806C95.4176 16.806 95.0069 16.6593 94.6989 16.366C94.3909 16.0727 94.2369 15.6767 94.2369 15.178C94.2369 14.7087 94.3836 14.32 94.6769 14.012C94.9703 13.6893 95.3076 13.4767 95.6889 13.374C95.5716 13.2273 95.3956 13.1027 95.1609 13C94.9263 12.8973 94.6623 12.846 94.3689 12.846C93.9143 12.846 93.5109 12.978 93.1589 13.242C92.8216 13.506 92.5356 13.8727 92.3009 14.342C92.0663 14.8113 91.8829 15.3613 91.7509 15.992C91.6336 16.6227 91.5749 17.312 91.5749 18.06C91.5749 19.1893 91.7143 20.0767 91.9929 20.722C92.2863 21.3673 92.6529 21.822 93.0929 22.086C93.5476 22.35 94.0169 22.482 94.5009 22.482C94.7796 22.482 95.0803 22.438 95.4029 22.35C95.7403 22.262 96.0776 22.086 96.4149 21.822C96.7669 21.558 97.0896 21.184 97.3829 20.7L97.7569 20.832C97.5956 21.3747 97.3316 21.9173 96.9649 22.46C96.5983 23.0027 96.1216 23.45 95.5349 23.802C94.9483 24.1393 94.2296 24.308 93.3789 24.308C92.4256 24.308 91.5603 24.1027 90.7829 23.692C90.0203 23.2667 89.4043 22.6213 88.9349 21.756C88.4803 20.876 88.2529 19.7467 88.2529 18.368C88.2529 17.048 88.4876 15.9407 88.9569 15.046C89.4409 14.1367 90.0936 13.4547 90.9149 13C91.7363 12.5453 92.6676 12.318 93.7089 12.318ZM104.579 12.318C105.87 12.318 106.882 12.6993 107.615 13.462C108.348 14.2247 108.715 15.4713 108.715 17.202H101.477L101.433 16.784H105.943C105.958 16.0653 105.914 15.4053 105.811 14.804C105.708 14.188 105.547 13.6967 105.327 13.33C105.107 12.9633 104.814 12.78 104.447 12.78C103.934 12.78 103.494 13.1027 103.127 13.748C102.775 14.3933 102.562 15.464 102.489 16.96L102.555 17.092C102.54 17.268 102.526 17.4513 102.511 17.642C102.511 17.8327 102.511 18.0307 102.511 18.236C102.511 19.248 102.65 20.0693 102.929 20.7C103.222 21.3307 103.589 21.7927 104.029 22.086C104.469 22.3647 104.916 22.504 105.371 22.504C105.679 22.504 105.994 22.46 106.317 22.372C106.654 22.2693 106.992 22.0933 107.329 21.844C107.666 21.58 107.982 21.2133 108.275 20.744L108.671 20.876C108.495 21.4333 108.216 21.976 107.835 22.504C107.454 23.032 106.97 23.4647 106.383 23.802C105.796 24.1393 105.092 24.308 104.271 24.308C103.274 24.308 102.394 24.0953 101.631 23.67C100.868 23.2447 100.267 22.5993 99.827 21.734C99.4017 20.8687 99.189 19.7687 99.189 18.434C99.189 17.07 99.4163 15.9333 99.871 15.024C100.34 14.1147 100.978 13.44 101.785 13C102.606 12.5453 103.538 12.318 104.579 12.318Z" fill="#2E2E2E"/>
<path d="M17.7021 12.4257L17.4346 11.5453C17.0949 10.5452 16.0087 10.01 15.0086 10.3497C14.4459 10.5409 14.0041 10.9827 13.813 11.5453L13.5455 12.4257C13.3204 13.1682 13.2731 13.9533 13.4076 14.7174C13.5302 15.3607 13.9386 15.9134 14.5176 16.2195L14.218 22.9166C14.1779 23.2904 14.2991 23.6636 14.5513 23.9424C15.0937 24.5356 16.0143 24.5769 16.6075 24.0345C16.6396 24.0052 16.6703 23.9745 16.6996 23.9424C16.9462 23.6715 17.0672 23.3092 17.033 22.9445L16.7317 16.2187C17.3099 15.9125 17.7177 15.3601 17.8401 14.7174C17.9745 13.9533 17.9272 13.1682 17.7021 12.4257ZM17.0192 14.5724C16.929 15.0346 16.5996 15.4138 16.1546 15.5678C15.9857 15.6313 15.8769 15.7963 15.8851 15.9766L16.2017 23.0103C16.2163 23.1483 16.1708 23.2858 16.0767 23.3878C15.8258 23.6362 15.4218 23.6362 15.1709 23.3878C15.0721 23.2776 15.0273 23.1293 15.0484 22.9828L15.3626 15.9766C15.3707 15.7963 15.2619 15.6313 15.093 15.5678C14.648 15.4138 14.3186 15.0346 14.2284 14.5724C14.1169 13.938 14.1562 13.2863 14.343 12.6699L14.6105 11.7891C14.8175 11.2294 15.4389 10.9435 15.9986 11.1505C16.2945 11.26 16.5277 11.4932 16.6371 11.7891L16.9046 12.6699C17.0912 13.2864 17.1305 13.938 17.0192 14.5724Z" fill="#FF9401"/>
<path d="M11.2492 10.25C11.0191 10.25 10.8325 10.4366 10.8325 10.6667V14.2442L9.7046 15.3721C9.62117 15.4552 9.57679 15.5698 9.58252 15.6875L9.9471 22.9792C9.9558 23.1364 9.89872 23.2902 9.7896 23.4038C9.56153 23.6339 9.19007 23.6355 8.95992 23.4074C8.95867 23.4062 8.95747 23.4049 8.95627 23.4038C8.8471 23.2902 8.79007 23.1364 8.79877 22.9792L9.16585 15.6875C9.17169 15.5699 9.12747 15.4553 9.04419 15.3721L7.91585 14.2442V10.6667C7.91585 10.4366 7.72929 10.25 7.49919 10.25C7.26908 10.25 7.08252 10.4366 7.08252 10.6667V14.4167C7.08252 14.5272 7.12648 14.6331 7.2046 14.7113L8.32377 15.8308L7.96835 22.9388C7.93054 23.7152 8.52929 24.3753 9.3057 24.4131C10.0821 24.4509 10.7422 23.8521 10.78 23.0757C10.7823 23.0301 10.7823 22.9844 10.78 22.9388L10.4246 15.8309L11.5438 14.7113C11.6219 14.6332 11.6659 14.5272 11.6659 14.4167V10.6667C11.6659 10.4366 11.4793 10.25 11.2492 10.25Z" fill="#FF9401"/>
<path d="M8.74919 10.25C8.51908 10.25 8.33252 10.4366 8.33252 10.6667V14C8.33252 14.2301 8.51908 14.4167 8.74919 14.4167C8.97929 14.4167 9.16585 14.2301 9.16585 14V10.6667C9.16585 10.4366 8.97929 10.25 8.74919 10.25Z" fill="#FF9401"/>
<path d="M9.99919 10.25C9.76908 10.25 9.58252 10.4366 9.58252 10.6667V14C9.58252 14.2301 9.76908 14.4167 9.99919 14.4167C10.2293 14.4167 10.4159 14.2301 10.4159 14V10.6667C10.4159 10.4366 10.2293 10.25 9.99919 10.25Z" fill="#FF9401"/>
<path d="M12.5 4C5.59646 4 0 9.59646 0 16.5C0 23.4035 5.59646 29 12.5 29C19.4035 29 25 23.4035 25 16.5C24.9922 9.59969 19.4003 4.00781 12.5 4ZM12.5 28.1667C6.05667 28.1667 0.833333 22.9433 0.833333 16.5C0.833333 10.0567 6.05667 4.83333 12.5 4.83333C18.9433 4.83333 24.1667 10.0567 24.1667 16.5C24.1593 22.9403 18.9403 28.1593 12.5 28.1667Z" fill="#2E2E2E"/>
<path d="M13.8525 24.3215C13.8301 24.0925 13.6263 23.925 13.3973 23.9473C13.3919 23.9478 13.3865 23.9485 13.3812 23.9492L13.3828 23.9488C12.7962 24.0169 12.2036 24.0169 11.617 23.9488C11.3883 23.9219 11.1813 24.0855 11.1545 24.3142C11.1277 24.5428 11.2913 24.7499 11.5199 24.7767C12.1705 24.8527 12.8277 24.8527 13.4782 24.7767C13.7073 24.7544 13.8748 24.5506 13.8525 24.3215Z" fill="#2E2E2E"/>
<path d="M18.8748 11.1308C18.7269 10.9545 18.4641 10.9315 18.2878 11.0794C18.2872 11.0799 18.2867 11.0804 18.286 11.0808C18.1102 11.2292 18.0878 11.492 18.236 11.6679C20.7483 14.6502 20.5561 19.0601 17.794 21.8125C17.6309 21.975 17.6305 22.2389 17.7929 22.4019C17.9554 22.5649 18.2193 22.5654 18.3823 22.4029C21.4519 19.345 21.666 14.4449 18.8748 11.1308Z" fill="#2E2E2E"/>
<path d="M14.4667 8.39998C12.8383 8.00972 11.1305 8.11461 9.5621 8.70123C9.34669 8.78222 9.23778 9.02253 9.31877 9.23789C9.37981 9.40024 9.53502 9.50768 9.70841 9.50784C9.75825 9.50758 9.80762 9.49847 9.85419 9.48081C11.2666 8.95263 12.8045 8.85831 14.2709 9.20998C14.4946 9.26404 14.7197 9.12659 14.7738 8.90289C14.8278 8.67919 14.6904 8.45404 14.4667 8.39998Z" fill="#2E2E2E"/>
<path d="M7.18629 21.7913C5.78165 20.3891 4.99441 18.4844 4.9992 16.4996C4.99509 14.9139 5.49738 13.3683 6.43295 12.088C6.57124 11.904 6.5342 11.6428 6.35025 11.5045C6.16629 11.3663 5.90509 11.4033 5.76681 11.5872C5.76436 11.5905 5.76196 11.5938 5.75962 11.5971C3.35061 14.909 3.70509 19.4804 6.59587 22.3813C6.75879 22.5443 7.02306 22.5444 7.18608 22.3815C7.3491 22.2186 7.34921 21.9543 7.18629 21.7913Z" fill="#2E2E2E"/>
</svg>
