<?xml version="1.0" encoding="utf-8"?><svg viewBox="0 0 31 24" xmlns="http://www.w3.org/2000/svg" xmlns:xlink="http://www.w3.org/1999/xlink"><style>:root>svg{display:none}:root>svg:target{display:block}</style><svg viewBox="0 0 20 17" id="burger" xmlns="http://www.w3.org/2000/svg"><rect width="20" height="3" rx="1.5"/><rect x="4" y="7" width="16" height="3" rx="1.5"/><rect y="14" width="20" height="3" rx="1.5"/></svg><svg viewBox="0 0 22 22" id="cart" xmlns="http://www.w3.org/2000/svg"><path d="M16.133 5.867V2.933c0-1.466-1.466-1.466-1.466-1.466h-7.26s-1.62.003-1.54 1.466v2.934H2.933s-1.466 0-1.466 1.466V17.6c0 1.467 1.466 1.467 1.466 1.467h16.134s1.466 0 1.466-1.467V7.333c0-1.466-1.466-1.466-1.466-1.466h-2.934zm-8.066-2.2h5.866v2.2H8.067v-2.2z"/><circle cx="18.5" cy="5.5" r="3.5"/></svg><svg viewBox="0 0 31 17" id="next" xmlns="http://www.w3.org/2000/svg"><path d="M22.104.454l-1.39 1.39 5.897 5.896H.983v1.966H26.61l-5.896 5.896 1.39 1.39 8.27-8.269-8.27-8.269z"/></svg><svg viewBox="0 0 14 14" id="prev" xmlns="http://www.w3.org/2000/svg"><path d="M13.599 6.563H2.189l2.626-2.625-.619-.619L.515 7l3.681 3.681.619-.618L2.19 7.438h11.409v-.875z"/></svg><svg viewBox="0 0 24 24" id="search" xmlns="http://www.w3.org/2000/svg"><path d="M10 18a7.952 7.952 0 004.897-1.688l4.396 4.396.707-.707.707-.707-4.396-4.396A7.952 7.952 0 0018 10c0-4.411-3.589-8-8-8s-8 3.589-8 8 3.589 8 8 8zm0-14c3.309 0 6 2.691 6 6s-2.691 6-6 6-6-2.691-6-6 2.691-6 6-6z"/></svg></svg>